<mxfile host="app.diagrams.net" modified="2021-05-20T09:38:45.914Z" agent="5.0 (Macintosh; Intel Mac OS X 10_15_7) AppleWebKit/537.36 (KHTML, like Gecko) Chrome/90.0.4430.85 Safari/537.36" etag="iAhJMbjYsklFWG5ae1w1" version="14.6.12" type="github">
  <diagram name="Page-1" id="13e1069c-82ec-6db2-03f1-153e76fe0fe0">
    <mxGraphModel dx="904" dy="589" grid="1" gridSize="10" guides="1" tooltips="1" connect="1" arrows="1" fold="1" page="1" pageScale="1" pageWidth="1100" pageHeight="850" background="#ffffff" math="0" shadow="0">
      <root>
        <mxCell id="0" />
        <mxCell id="1" parent="0" />
        <mxCell id="ATnU1uDm39jETIhDvYws-1" value="协调服务端" style="shape=umlLifeline;perimeter=lifelinePerimeter;whiteSpace=wrap;html=1;container=1;collapsible=0;recursiveResize=0;outlineConnect=0;rounded=1;shadow=0;comic=0;labelBackgroundColor=none;strokeWidth=1;fontFamily=Verdana;fontSize=15;align=center;flipH=1;" parent="1" vertex="1">
          <mxGeometry x="420" y="80" width="90" height="600" as="geometry" />
        </mxCell>
        <mxCell id="fk6fb7zOuK8uviwRY05x-3" value="" style="html=1;points=[];perimeter=orthogonalPerimeter;rounded=0;shadow=0;comic=0;labelBackgroundColor=none;strokeWidth=1;fontFamily=Verdana;fontSize=15;align=center;" parent="ATnU1uDm39jETIhDvYws-1" vertex="1">
          <mxGeometry x="40" y="70" width="10" height="530" as="geometry" />
        </mxCell>
        <mxCell id="3CKQgC9b_GDFYUdg1jVJ-1" value="" style="curved=1;endArrow=classic;html=1;fontSize=15;entryX=1.2;entryY=0.421;entryDx=0;entryDy=0;entryPerimeter=0;" edge="1" parent="ATnU1uDm39jETIhDvYws-1">
          <mxGeometry width="50" height="50" relative="1" as="geometry">
            <mxPoint x="52" y="340" as="sourcePoint" />
            <mxPoint x="52" y="367.87" as="targetPoint" />
            <Array as="points">
              <mxPoint x="90" y="340" />
              <mxPoint x="80" y="370" />
            </Array>
          </mxGeometry>
        </mxCell>
        <mxCell id="ATnU1uDm39jETIhDvYws-7" value="用户A&lt;br style=&quot;font-size: 15px;&quot;&gt;client" style="shape=umlLifeline;perimeter=lifelinePerimeter;whiteSpace=wrap;html=1;container=1;collapsible=0;recursiveResize=0;outlineConnect=0;rounded=1;shadow=0;comic=0;labelBackgroundColor=none;strokeWidth=1;fontFamily=Verdana;fontSize=15;align=center;flipH=1;" parent="1" vertex="1">
          <mxGeometry x="130" y="80" width="90" height="600" as="geometry" />
        </mxCell>
        <mxCell id="ATnU1uDm39jETIhDvYws-8" value="" style="html=1;points=[];perimeter=orthogonalPerimeter;rounded=0;shadow=0;comic=0;labelBackgroundColor=none;strokeWidth=1;fontFamily=Verdana;fontSize=15;align=center;" parent="ATnU1uDm39jETIhDvYws-7" vertex="1">
          <mxGeometry x="40" y="70" width="10" height="530" as="geometry" />
        </mxCell>
        <mxCell id="FtieT1ZC5nR8QPZiL7Fl-1" value="" style="endArrow=classic;html=1;entryX=-0.2;entryY=0.32;entryDx=0;entryDy=0;entryPerimeter=0;fontSize=15;" parent="1" edge="1">
          <mxGeometry width="50" height="50" relative="1" as="geometry">
            <mxPoint x="30" y="154" as="sourcePoint" />
            <mxPoint x="171" y="154" as="targetPoint" />
          </mxGeometry>
        </mxCell>
        <mxCell id="FtieT1ZC5nR8QPZiL7Fl-2" value="请求发送离线文件" style="text;html=1;strokeColor=none;fillColor=none;align=center;verticalAlign=middle;whiteSpace=wrap;rounded=0;fontSize=15;" parent="1" vertex="1">
          <mxGeometry x="40" y="130" width="135" height="20" as="geometry" />
        </mxCell>
        <mxCell id="FtieT1ZC5nR8QPZiL7Fl-3" style="edgeStyle=orthogonalEdgeStyle;rounded=0;orthogonalLoop=1;jettySize=auto;html=1;fontSize=15;" parent="1" edge="1">
          <mxGeometry relative="1" as="geometry">
            <mxPoint x="183" y="283" as="sourcePoint" />
            <mxPoint x="462" y="283" as="targetPoint" />
          </mxGeometry>
        </mxCell>
        <mxCell id="FtieT1ZC5nR8QPZiL7Fl-13" value="OnOpen" style="edgeLabel;html=1;align=center;verticalAlign=middle;resizable=0;points=[];fontSize=15;" parent="FtieT1ZC5nR8QPZiL7Fl-3" vertex="1" connectable="0">
          <mxGeometry x="-0.0367" y="2" relative="1" as="geometry">
            <mxPoint x="11" as="offset" />
          </mxGeometry>
        </mxCell>
        <mxCell id="FtieT1ZC5nR8QPZiL7Fl-10" style="edgeStyle=orthogonalEdgeStyle;rounded=0;orthogonalLoop=1;jettySize=auto;html=1;fontSize=15;" parent="1" edge="1">
          <mxGeometry relative="1" as="geometry">
            <mxPoint x="449.5" y="350" as="sourcePoint" />
            <mxPoint x="182.5" y="350" as="targetPoint" />
            <Array as="points">
              <mxPoint x="457.5" y="350" />
            </Array>
          </mxGeometry>
        </mxCell>
        <mxCell id="FtieT1ZC5nR8QPZiL7Fl-12" value="OnMessage" style="edgeLabel;html=1;align=center;verticalAlign=middle;resizable=0;points=[];fontSize=15;" parent="FtieT1ZC5nR8QPZiL7Fl-10" vertex="1" connectable="0">
          <mxGeometry x="0.2155" y="1" relative="1" as="geometry">
            <mxPoint x="30" as="offset" />
          </mxGeometry>
        </mxCell>
        <mxCell id="FtieT1ZC5nR8QPZiL7Fl-11" value="连接成功、返回用户连接信息" style="text;html=1;strokeColor=none;fillColor=none;align=center;verticalAlign=middle;whiteSpace=wrap;rounded=0;fontSize=15;" parent="1" vertex="1">
          <mxGeometry x="190" y="320" width="200" height="20" as="geometry" />
        </mxCell>
        <mxCell id="FtieT1ZC5nR8QPZiL7Fl-14" style="edgeStyle=orthogonalEdgeStyle;rounded=0;orthogonalLoop=1;jettySize=auto;html=1;exitX=1.3;exitY=0.078;exitDx=0;exitDy=0;exitPerimeter=0;fontSize=15;" parent="1" edge="1">
          <mxGeometry relative="1" as="geometry">
            <mxPoint x="187" y="419.04999999999995" as="sourcePoint" />
            <mxPoint x="456" y="420" as="targetPoint" />
            <Array as="points">
              <mxPoint x="322" y="420" />
            </Array>
          </mxGeometry>
        </mxCell>
        <mxCell id="FtieT1ZC5nR8QPZiL7Fl-15" value="OnSubmit" style="edgeLabel;html=1;align=center;verticalAlign=middle;resizable=0;points=[];fontSize=15;" parent="FtieT1ZC5nR8QPZiL7Fl-14" vertex="1" connectable="0">
          <mxGeometry x="-0.0367" y="2" relative="1" as="geometry">
            <mxPoint x="11" as="offset" />
          </mxGeometry>
        </mxCell>
        <mxCell id="FtieT1ZC5nR8QPZiL7Fl-16" value="发送信息" style="text;html=1;strokeColor=none;fillColor=none;align=center;verticalAlign=middle;whiteSpace=wrap;rounded=0;fontSize=15;" parent="1" vertex="1">
          <mxGeometry x="150" y="390" width="180" height="20" as="geometry" />
        </mxCell>
        <mxCell id="FtieT1ZC5nR8QPZiL7Fl-18" style="edgeStyle=orthogonalEdgeStyle;rounded=0;orthogonalLoop=1;jettySize=auto;html=1;fontSize=15;" parent="1" edge="1">
          <mxGeometry relative="1" as="geometry">
            <mxPoint x="452" y="450" as="sourcePoint" />
            <mxPoint x="185" y="450" as="targetPoint" />
            <Array as="points">
              <mxPoint x="460" y="450" />
            </Array>
          </mxGeometry>
        </mxCell>
        <mxCell id="FtieT1ZC5nR8QPZiL7Fl-19" value="OnMessage" style="edgeLabel;html=1;align=center;verticalAlign=middle;resizable=0;points=[];fontSize=15;" parent="FtieT1ZC5nR8QPZiL7Fl-18" vertex="1" connectable="0">
          <mxGeometry x="0.2155" y="1" relative="1" as="geometry">
            <mxPoint x="30" as="offset" />
          </mxGeometry>
        </mxCell>
        <mxCell id="FtieT1ZC5nR8QPZiL7Fl-20" value="..." style="text;html=1;strokeColor=none;fillColor=none;align=center;verticalAlign=middle;whiteSpace=wrap;rounded=0;fontSize=15;" parent="1" vertex="1">
          <mxGeometry x="310" y="550" width="40" height="20" as="geometry" />
        </mxCell>
        <mxCell id="FtieT1ZC5nR8QPZiL7Fl-21" style="edgeStyle=orthogonalEdgeStyle;rounded=0;orthogonalLoop=1;jettySize=auto;html=1;exitX=1.3;exitY=0.078;exitDx=0;exitDy=0;exitPerimeter=0;fontSize=15;" parent="1" edge="1">
          <mxGeometry relative="1" as="geometry">
            <mxPoint x="190.5" y="610" as="sourcePoint" />
            <mxPoint x="459.5" y="610.95" as="targetPoint" />
            <Array as="points">
              <mxPoint x="325.5" y="610.95" />
            </Array>
          </mxGeometry>
        </mxCell>
        <mxCell id="FtieT1ZC5nR8QPZiL7Fl-22" value="OnClose" style="edgeLabel;html=1;align=center;verticalAlign=middle;resizable=0;points=[];fontSize=15;" parent="FtieT1ZC5nR8QPZiL7Fl-21" vertex="1" connectable="0">
          <mxGeometry x="-0.0367" y="2" relative="1" as="geometry">
            <mxPoint x="11" as="offset" />
          </mxGeometry>
        </mxCell>
        <mxCell id="FtieT1ZC5nR8QPZiL7Fl-23" value="客户端断开连接" style="text;html=1;strokeColor=none;fillColor=none;align=center;verticalAlign=middle;whiteSpace=wrap;rounded=0;fontSize=15;" parent="1" vertex="1">
          <mxGeometry x="160" y="580" width="180" height="20" as="geometry" />
        </mxCell>
        <mxCell id="FtieT1ZC5nR8QPZiL7Fl-24" style="edgeStyle=orthogonalEdgeStyle;rounded=0;orthogonalLoop=1;jettySize=auto;html=1;fontSize=15;" parent="1" edge="1">
          <mxGeometry relative="1" as="geometry">
            <mxPoint x="451.5" y="640" as="sourcePoint" />
            <mxPoint x="184.5" y="640" as="targetPoint" />
            <Array as="points">
              <mxPoint x="459.5" y="640" />
            </Array>
          </mxGeometry>
        </mxCell>
        <mxCell id="FtieT1ZC5nR8QPZiL7Fl-25" value="OnMessage" style="edgeLabel;html=1;align=center;verticalAlign=middle;resizable=0;points=[];fontSize=15;" parent="FtieT1ZC5nR8QPZiL7Fl-24" vertex="1" connectable="0">
          <mxGeometry x="0.2155" y="1" relative="1" as="geometry">
            <mxPoint x="30" as="offset" />
          </mxGeometry>
        </mxCell>
        <mxCell id="FtieT1ZC5nR8QPZiL7Fl-32" style="edgeStyle=orthogonalEdgeStyle;rounded=0;orthogonalLoop=1;jettySize=auto;html=1;exitX=1.3;exitY=0.078;exitDx=0;exitDy=0;exitPerimeter=0;fontSize=15;" parent="1" edge="1">
          <mxGeometry relative="1" as="geometry">
            <mxPoint x="188.5" y="483.04999999999995" as="sourcePoint" />
            <mxPoint x="457.5" y="484" as="targetPoint" />
            <Array as="points">
              <mxPoint x="323.5" y="484" />
            </Array>
          </mxGeometry>
        </mxCell>
        <mxCell id="FtieT1ZC5nR8QPZiL7Fl-33" value="OnSubmit" style="edgeLabel;html=1;align=center;verticalAlign=middle;resizable=0;points=[];fontSize=15;" parent="FtieT1ZC5nR8QPZiL7Fl-32" vertex="1" connectable="0">
          <mxGeometry x="-0.0367" y="2" relative="1" as="geometry">
            <mxPoint x="11" as="offset" />
          </mxGeometry>
        </mxCell>
        <mxCell id="FtieT1ZC5nR8QPZiL7Fl-34" style="edgeStyle=orthogonalEdgeStyle;rounded=0;orthogonalLoop=1;jettySize=auto;html=1;fontSize=15;" parent="1" edge="1">
          <mxGeometry relative="1" as="geometry">
            <mxPoint x="451.5" y="514" as="sourcePoint" />
            <mxPoint x="184.5" y="514" as="targetPoint" />
            <Array as="points">
              <mxPoint x="459.5" y="514" />
            </Array>
          </mxGeometry>
        </mxCell>
        <mxCell id="FtieT1ZC5nR8QPZiL7Fl-35" value="OnMessage" style="edgeLabel;html=1;align=center;verticalAlign=middle;resizable=0;points=[];fontSize=15;" parent="FtieT1ZC5nR8QPZiL7Fl-34" vertex="1" connectable="0">
          <mxGeometry x="0.2155" y="1" relative="1" as="geometry">
            <mxPoint x="30" as="offset" />
          </mxGeometry>
        </mxCell>
        <mxCell id="FtieT1ZC5nR8QPZiL7Fl-4" value="初始化WebSocket:8081&lt;br style=&quot;font-size: 15px;&quot;&gt;连接服务端" style="text;html=1;strokeColor=none;fillColor=none;align=center;verticalAlign=middle;whiteSpace=wrap;rounded=0;fontSize=15;" parent="1" vertex="1">
          <mxGeometry x="190" y="240" width="180" height="20" as="geometry" />
        </mxCell>
        <mxCell id="3CKQgC9b_GDFYUdg1jVJ-2" value="服务端调用&lt;br&gt;handleBinaryWebSocketFrame方法处理并接受二进制数据请求" style="text;html=1;strokeColor=none;fillColor=none;align=center;verticalAlign=middle;whiteSpace=wrap;rounded=0;fontSize=15;" vertex="1" parent="1">
          <mxGeometry x="500" y="420" width="250" height="20" as="geometry" />
        </mxCell>
      </root>
    </mxGraphModel>
  </diagram>
</mxfile>
